<?xml version="1.0" encoding="iso-8859-1"?>
<!-- Generator: Adobe Illustrator 16.0.0, SVG Export Plug-In . SVG Version: 6.00 Build 0)  -->
<!DOCTYPE svg PUBLIC "-//W3C//DTD SVG 1.1//EN" "http://www.w3.org/Graphics/SVG/1.1/DTD/svg11.dtd">
<svg xmlns="http://www.w3.org/2000/svg" xmlns:xlink="http://www.w3.org/1999/xlink" version="1.1" id="Capa_1" x="0px" y="0px" width="512px" height="512px" viewBox="0 0 22 22" style="enable-background:new 0 0 22 22;" xml:space="preserve">
<g>
	<g>
		<path d="M0,6h6V0H0V6z M2,2h2v2H2V2z" fill="#FFFFFF"/>
		<path d="M8,6h6V0H8V6z M10,2h2v2h-2V2z" fill="#FFFFFF"/>
		<path d="M16,0v6h6V0H16z M20,4h-2V2h2V4z" fill="#FFFFFF"/>
		<path d="M0,14h6V8H0V14z M2,10h2v2H2V10z" fill="#FFFFFF"/>
		<path d="M8,14h6V8H8V14z M10,10h2v2h-2V10z" fill="#FFFFFF"/>
		<path d="M16,14h6V8h-6V14z M18,10h2v2h-2V10z" fill="#FFFFFF"/>
		<path d="M0,22h6v-6H0V22z M2,18h2v2H2V18z" fill="#FFFFFF"/>
		<path d="M8,22h6v-6H8V22z M10,18h2v2h-2V18z" fill="#FFFFFF"/>
		<path d="M16,22h6v-6h-6V22z M18,18h2v2h-2V18z" fill="#FFFFFF"/>
	</g>
</g>
<g>
</g>
<g>
</g>
<g>
</g>
<g>
</g>
<g>
</g>
<g>
</g>
<g>
</g>
<g>
</g>
<g>
</g>
<g>
</g>
<g>
</g>
<g>
</g>
<g>
</g>
<g>
</g>
<g>
</g>
</svg>
