<?xml version="1.0" encoding="iso-8859-1"?>
<!-- Generator: Adobe Illustrator 19.0.0, SVG Export Plug-In . SVG Version: 6.00 Build 0)  -->
<svg version="1.1" id="Layer_1" xmlns="http://www.w3.org/2000/svg" xmlns:xlink="http://www.w3.org/1999/xlink" x="0px" y="0px"
	 viewBox="0 0 481.8 481.8" style="enable-background:new 0 0 481.8 481.8;" xml:space="preserve">
<path style="fill:#3A556A;" d="M419.2,416.8v25.3H312c47-24.7,79.5-72.3,82.5-128.3h22.9v-62.6h-62v62.6h22.3
	c-4.2,60.8-47.6,110.8-105.4,124.1v-18.7h-62.6v18.7c-57.8-13.3-101.2-63.2-105.4-124.1h22.3v-62.6H63.8v62.6h22.9
	c3,56,36.1,103.6,82.5,128.3H62.6v-25.3H0v62.6h62.6v-19.9h147v22.3h62.6v-22.3h147v19.9h62.6v-62.6L419.2,416.8L419.2,416.8z
	 M372.8,296.3v-27.7h27.7v27.7H372.8z M81.3,296.3v-27.7H109v27.7H81.3z M45.1,461.4H17.4v-27.7h27.7V461.4z M254.8,464.4h-27.7
	v-27.7h27.7V464.4z M464.4,461.4h-27.7v-27.7h27.7V461.4z"/>
<rect x="210.3" y="90.6" style="fill:#D15241;" width="60.6" height="206.2"/>
<path style="fill:#CE412D;" d="M311.9,296.8h-46.3V90.6h48.8v203.8C314.3,295.7,313.2,296.8,311.9,296.8z"/>
<path style="fill:#E56353;" d="M216.3,296.8h-45.6c-1.7,0-3.2-1.4-3.2-3.2v-203h48.8V296.8z"/>
<rect x="211.5" style="fill:#3A556A;" width="59.4" height="73.5"/>
<path style="fill:#64798A;" d="M301.1,0h-35.5v73.5h48.8V12.6C313.8,6,308.4,0,301.1,0z"/>
<path style="fill:#2F4859;" d="M180.7,0c-7.2,0-13.3,6-13.3,13.3v60.2h48.8V0H180.7z"/>
<path style="fill:#FCD462;" d="M167.5,294.9l45.1,82.5c11.1,10.3,19,15.4,29.8,15.4c11.4,0,17.5-6.1,26.8-15.4l45.1-82.5H167.5z"/>
<path style="fill:#64798A;" d="M240.9,364.9c-11.4,0-21.1,5.3-28.3,12.5l21.7,39.3c3,5.4,10.2,5.4,13.3,0l21.7-39.3
	C262,370.2,252.3,364.9,240.9,364.9z"/>
<rect x="167.4" y="72.7" style="fill:#EBF0F3;" width="147" height="18.6"/>
<g>
</g>
<g>
</g>
<g>
</g>
<g>
</g>
<g>
</g>
<g>
</g>
<g>
</g>
<g>
</g>
<g>
</g>
<g>
</g>
<g>
</g>
<g>
</g>
<g>
</g>
<g>
</g>
<g>
</g>
</svg>
