<?xml version="1.0" encoding="iso-8859-1"?>
<!-- Generator: Adobe Illustrator 19.0.0, SVG Export Plug-In . SVG Version: 6.00 Build 0)  -->
<svg version="1.1" id="Layer_1" xmlns="http://www.w3.org/2000/svg" xmlns:xlink="http://www.w3.org/1999/xlink" x="0px" y="0px"
	 viewBox="0 0 408.759 408.759" style="enable-background:new 0 0 408.759 408.759;" xml:space="preserve">
<g>
	<path style="fill:#FFBE00;" d="M204.385,408.759c-58.121,0-113.674-24.869-152.417-68.227
		C18.46,303.057,0.005,254.703,0.005,204.378C0.005,91.685,91.689,0,204.385,0c50.317,0,98.674,18.455,136.164,51.964
		c43.346,38.762,68.205,94.314,68.205,152.415C408.755,317.074,317.075,408.759,204.385,408.759"/>
	<path style="fill:#F4502A;" d="M377.757,204.377c0,4-0.129,7.959-0.41,11.888c-0.931,13.852-3.499,27.251-7.499,40.011
		c-20.39,65.09-78.11,113.66-148.081,120.611c-5.721,0.58-11.51,0.87-17.38,0.87c-3.57,0-7.109-0.109-10.62-0.331
		c-47.109-2.84-89.14-24.499-118.681-57.55c-0.259-0.29-0.519-0.589-0.789-0.879c-26.951-30.56-43.29-70.679-43.29-114.62
		c0-95.751,77.619-173.38,173.379-173.38c43.95,0,84.069,16.348,114.631,43.289c0.29,0.27,0.589,0.53,0.879,0.791
		C355.408,106.836,377.757,152.987,377.757,204.377"/>
	<path style="fill:#C29100;" d="M91.512,335.977c0.036,0.032,0.075,0.064,0.111,0.096C91.586,336.041,91.549,336.009,91.512,335.977
		 M74.313,319.013c5.283,5.989,10.974,11.608,17.029,16.818c-5.762-4.959-11.191-10.289-16.256-15.956
		C74.833,319.591,74.577,319.298,74.313,319.013 M70.394,314.413c0.015,0.019,0.032,0.038,0.047,0.057
		C70.425,314.451,70.41,314.432,70.394,314.413 M70.04,313.981c0.027,0.032,0.053,0.064,0.079,0.097
		C70.093,314.045,70.067,314.014,70.04,313.981 M69.761,313.638c0.046,0.056,0.092,0.112,0.137,0.168
		C69.852,313.75,69.806,313.694,69.761,313.638 M69.434,313.235c0.053,0.065,0.106,0.131,0.159,0.197
		C69.54,313.366,69.487,313.301,69.434,313.235 M69.106,312.828c0.075,0.094,0.155,0.193,0.231,0.287
		C69.26,313.02,69.182,312.923,69.106,312.828 M68.777,312.416c0.084,0.106,0.167,0.209,0.252,0.315
		C68.944,312.626,68.86,312.521,68.777,312.416 M68.492,312.059c0.088,0.11,0.179,0.225,0.267,0.335
		C68.671,312.283,68.581,312.17,68.492,312.059 M68.184,311.669c0.095,0.121,0.185,0.235,0.281,0.355
		C68.37,311.905,68.278,311.788,68.184,311.669 M139.391,43.591C75.833,69.302,31.006,131.599,31.006,204.369
		c0,40.509,13.886,77.771,37.165,107.283c-23.279-29.515-37.163-66.773-37.163-107.275C31.008,131.611,75.841,69.308,139.391,43.591
		"/>
	<path style="fill:#BA3D20;" d="M204.385,30.999c-22.982,0-44.925,4.473-64.994,12.592c-63.55,25.717-108.383,88.02-108.383,160.786
		c0,40.502,13.883,77.76,37.163,107.275c0.004,0.005,0.01,0.013,0.014,0.017c0.094,0.119,0.186,0.236,0.281,0.355
		c0.009,0.012,0.018,0.023,0.028,0.035c0.088,0.111,0.178,0.224,0.267,0.335c0.006,0.007,0.012,0.015,0.017,0.021
		c0.084,0.105,0.168,0.21,0.252,0.315c0.026,0.033,0.051,0.064,0.078,0.097c0.076,0.095,0.154,0.192,0.231,0.287
		c0.034,0.042,0.064,0.079,0.098,0.121c0.053,0.065,0.106,0.131,0.159,0.197c0.055,0.068,0.112,0.138,0.167,0.206
		c0.046,0.056,0.092,0.112,0.137,0.168c0.047,0.058,0.094,0.116,0.142,0.174c0.027,0.033,0.053,0.064,0.079,0.097
		c0.091,0.112,0.183,0.224,0.275,0.335c0.016,0.019,0.031,0.038,0.047,0.057c1.265,1.536,2.556,3.052,3.872,4.543
		c0.264,0.285,0.52,0.578,0.773,0.862c5.065,5.667,10.494,10.997,16.256,15.956c0.057,0.049,0.113,0.097,0.17,0.146
		c0.037,0.032,0.074,0.064,0.111,0.096c0.281,0.24,0.559,0.478,0.842,0.716c-25.53-30.2-40.919-69.239-40.919-111.88
		c0-95.749,77.619-173.37,173.379-173.37c42.629,0,81.68,15.39,111.87,40.921C305.004,54.871,257.485,30.999,204.385,30.999"/>
	<path style="fill:#BA3D20;" d="M315.628,215.796h-17v17h17V215.796 M276.627,254.797v-61.001h61v61.001H276.627 M234.877,73.796
		l-61,38c0,0-64.279,24-73.28,95l-24.001-2l-5.47,50.001l122.64,122.629c3.51,0.222,7.05,0.331,10.62,0.331
		c5.87,0,11.66-0.29,17.38-0.87c69.97-6.951,127.69-55.521,148.081-120.611c4-12.76,6.568-26.159,7.499-40.011L234.877,73.796"/>
	<polygon style="fill:#FFFFFF;" points="241.587,188.564 215.377,188.564 215.377,334.744 193.377,334.744 193.377,188.564 
		167.167,188.564 175.067,180.645 204.377,151.254 233.687,180.645 	"/>
	<path style="fill:#FFBE00;" d="M113.377,204.376h-22c0-54.033,38.444-100.686,91.411-110.93l4.178,21.6
		C144.326,123.293,113.377,160.862,113.377,204.376z"/>
	<path style="fill:#FFBE00;" d="M317.377,204.376h-22c0-43.517-30.948-81.085-73.588-89.33l4.177-21.6
		C278.933,103.688,317.377,150.341,317.377,204.376z"/>
	<path style="fill:#1CA4BA;" d="M71.127,193.796v61h61v-61H71.127z M110.127,232.796h-17v-17h17V232.796z"/>
	<path style="fill:#1CA4BA;" d="M276.627,193.795v61.001h61v-61.001L276.627,193.795 M315.628,232.796h-17v-17h17V232.796"/>
	<path style="fill:#1CA4BA;" d="M234.88,134.796h-61v-61h61V134.796z M195.88,112.796h17v-17h-17V112.796z"/>
	<polyline style="fill:#157D8E;" points="276.627,223.605 276.627,254.797 307.816,254.797 276.627,223.605 	"/>
</g>
<g>
</g>
<g>
</g>
<g>
</g>
<g>
</g>
<g>
</g>
<g>
</g>
<g>
</g>
<g>
</g>
<g>
</g>
<g>
</g>
<g>
</g>
<g>
</g>
<g>
</g>
<g>
</g>
<g>
</g>
</svg>
